<?xml version="1.0" encoding="UTF-8"?>
<svg width="32px" height="12px" viewBox="0 0 32 12" version="1.1" xmlns="http://www.w3.org/2000/svg" xmlns:xlink="http://www.w3.org/1999/xlink">
    <!-- Generator: Sketch 52.2 (67145) - http://www.bohemiancoding.com/sketch -->
    <title>ADD</title>
    <desc>Created with Sketch.</desc>
    <g id="1.0.2" stroke="none" stroke-width="1" fill="none" fill-rule="evenodd" opacity="0.4">
        <g id="首页-" transform="translate(-165.000000, -601.000000)" fill="#292930">
            <g id="分组-8" transform="translate(32.000000, 525.000000)">
                <path d="M141.850537,87.848578 L140.551817,84.2608625 L135.632913,84.2608625 L134.334192,87.848578 L133.157227,87.848578 L137.540408,76.1357422 L138.644321,76.1357422 L143.019386,87.848578 L141.850537,87.848578 Z M138.068014,77.5075158 L135.96571,83.3030561 L140.219019,83.3030561 L138.116716,77.5075158 L138.068014,77.5075158 Z M144.309989,76.1357422 L148.165566,76.1357422 C151.672111,76.1357422 153.717596,78.2867481 153.717596,81.9881016 C153.717596,85.6975721 151.680228,87.848578 148.165566,87.848578 L144.309989,87.848578 L144.309989,76.1357422 Z M145.422019,77.1422506 L145.422019,86.8420696 L148.10063,86.8420696 C150.982166,86.8420696 152.589333,85.1050309 152.589333,81.9962186 C152.589333,78.8792893 150.982166,77.1422506 148.10063,77.1422506 L145.422019,77.1422506 Z M155.430284,76.1357422 L159.28586,76.1357422 C162.792406,76.1357422 164.837891,78.2867481 164.837891,81.9881016 C164.837891,85.6975721 162.800523,87.848578 159.28586,87.848578 L155.430284,87.848578 L155.430284,76.1357422 Z M156.542313,77.1422506 L156.542313,86.8420696 L159.220924,86.8420696 C162.10246,86.8420696 163.709627,85.1050309 163.709627,81.9962186 C163.709627,78.8792893 162.10246,77.1422506 159.220924,77.1422506 L156.542313,77.1422506 Z" id="ADD"></path>
            </g>
        </g>
    </g>
</svg>