<?xml version="1.0" encoding="UTF-8"?>
<svg width="750px" height="371px" viewBox="0 0 750 371" version="1.1" xmlns="http://www.w3.org/2000/svg" xmlns:xlink="http://www.w3.org/1999/xlink">
    <!-- Generator: Sketch 52.2 (67145) - http://www.bohemiancoding.com/sketch -->
    <title>分组 9</title>
    <desc>Created with Sketch.</desc>
    <defs>
        <linearGradient x1="100%" y1="20.6060767%" x2="0%" y2="66.4586954%" id="linearGradient-1">
            <stop stop-color="#7BC1FF" offset="0%"></stop>
            <stop stop-color="#6881FF" offset="100%"></stop>
        </linearGradient>
    </defs>
    <g id="Page-1" stroke="none" stroke-width="1" fill="none" fill-rule="evenodd">
        <g id="首页" transform="translate(0.000000, -125.000000)" fill-rule="nonzero">
            <g id="分组-9" transform="translate(0.000000, 125.000000)">
                <rect id="矩形-copy" fill="url(#linearGradient-1)" x="0" y="0" width="750" height="370"></rect>
                <path d="M0,233.512738 C4.47250534,222.591474 7.86446225,214.621733 10.1758707,209.603517 C31.5539042,163.190434 50.3568194,146.581339 72.1758707,136.632176 C93.1758707,127.056488 109.175871,126.973835 123.175871,129.175949 C137.175871,131.378063 160.175871,139.295756 192.175871,181.152293 C213.509204,209.056652 240.175871,223.458272 272.175871,224.357155 C299.509204,221.081787 321.842537,211.470672 339.175871,195.52381 C365.175871,171.603517 397.413378,159.859405 423.175871,159.859405 C448.938363,159.859405 475.694545,173.797626 499.175871,207.085187 C522.657197,240.372748 556.175871,275.221714 592.175871,279.303119 C628.175871,283.384525 665.381928,272.960878 694.175871,238.589385 C713.371832,215.675056 732.553402,185.876329 751.720581,149.193204 L751.720581,369.865079 L0,369.865079 L0,233.512738 Z" id="路径-4" fill-opacity="0.108033" fill="#D8D2FF"></path>
                <path d="M5.68434189e-14,255.718347 C41.3964966,253.173941 78.926782,227.568404 112.590856,178.901737 C163.086967,105.901737 208.5,110.593782 232,123.82203 C255.5,137.050279 276,182.394119 293,237.887605 C301.32851,265.074549 321.214186,282.759592 354,281.189788 C359.095839,280.945797 369.199042,279.797972 378.969586,275.891725 C382.535837,274.465944 387.840771,271.635167 394.884389,267.399393 C407.611413,258.400956 419.64995,240.901737 431,214.901737 C448.025075,175.901737 473,151.901737 515,151.901737 C543,151.901737 564.749408,167.235071 580.248224,197.901737 C603.416075,241.471415 630.666667,262.348864 662,260.534087 C693.333333,258.719309 723.44863,251.592572 752.345891,239.153874 L752.345891,370.118509 L2,370.118509 L5.68434189e-14,255.718347 Z" id="路径-5" fill-opacity="0.33" fill="#84BFFF"></path>
            </g>
        </g>
    </g>
</svg>