<?xml version="1.0" encoding="UTF-8"?>
<svg width="750px" height="176px" viewBox="0 0 750 176" version="1.1" xmlns="http://www.w3.org/2000/svg" xmlns:xlink="http://www.w3.org/1999/xlink">
    <!-- Generator: Sketch 52.2 (67145) - http://www.bohemiancoding.com/sketch -->
    <title>分组 4</title>
    <desc>Created with Sketch.</desc>
    <g id="Page-1" stroke="none" stroke-width="1" fill="none" fill-rule="evenodd" opacity="0.6">
        <g id="业绩榜-展开" transform="translate(0.000000, -198.000000)" fill-rule="nonzero">
            <g id="分组-4" transform="translate(0.000000, 198.000000)">
                <path d="M0,117.512738 C4.47250534,106.591474 7.86446225,98.6217332 10.1758707,93.603517 C31.5539042,47.1904341 50.3568194,30.5813386 72.1758707,20.6321759 C93.1758707,11.0564883 109.175871,10.9738348 123.175871,13.1759491 C137.175871,15.3780634 160.175871,23.2957561 192.175871,65.1522934 C213.509204,93.0566516 240.175871,107.458272 272.175871,108.357155 C299.509204,105.081787 321.842537,95.470672 339.175871,79.52381 C365.175871,55.603517 397.413378,43.8594053 423.175871,43.8594053 C448.938363,43.8594053 475.694545,57.7976261 499.175871,91.085187 C522.657197,124.372748 556.175871,159.221714 592.175871,163.303119 C628.175871,167.384525 665.381928,156.960878 694.175871,122.589385 C713.371832,99.675056 732.553402,69.8763289 751.720581,33.1932035 L751.720581,176 L0,176 L0,117.512738 Z" id="路径-4" fill-opacity="0.23" fill="#D8D2FF"></path>
                <path d="M0,139.718347 C41.3964966,137.173941 78.926782,111.568404 112.590856,62.9017374 C163.086967,-10.0982626 208.5,-5.40621798 232,7.82203037 C255.5,21.0502787 276,66.3941187 293,121.887605 C301.32851,149.074549 321.214186,166.759592 354,165.189788 C359.095839,164.945797 369.199042,163.797972 378.969586,159.891725 C382.535837,158.465944 387.840771,155.635167 394.884389,151.399393 C407.611413,142.400956 419.64995,124.901737 431,98.9017374 C448.025075,59.9017374 473,35.9017374 515,35.9017374 C543,35.9017374 564.749408,51.2350707 580.248224,81.9017374 C603.416075,125.471415 630.666667,146.348864 662,144.534087 C693.333333,142.719309 723.44863,135.592572 752.345891,123.153874 L752.345891,176 L2,176 L0,139.718347 Z" id="路径-5" fill-opacity="0.33" fill="#84BFFF"></path>
            </g>
        </g>
    </g>
</svg>