<?xml version="1.0" encoding="UTF-8"?>
<svg width="90px" height="90px" viewBox="0 0 90 90" version="1.1" xmlns="http://www.w3.org/2000/svg" xmlns:xlink="http://www.w3.org/1999/xlink">
    <!-- Generator: Sketch 52.2 (67145) - http://www.bohemiancoding.com/sketch -->
    <title>分组 2</title>
    <desc>Created with Sketch.</desc>
    <g id="Page-1" stroke="none" stroke-width="1" fill="none" fill-rule="evenodd">
        <g id="详细地址" transform="translate(-639.000000, -643.000000)" fill-rule="nonzero">
            <g id="分组-2" transform="translate(639.000000, 643.000000)">
                <circle id="椭圆形" fill="#FFFFFF" cx="45" cy="45" r="45"></circle>
                <g id="dingwei" transform="translate(20.000000, 20.000000)" fill="#4289FF">
                    <path d="M26.1126202,5.0250267 C31.1334757,5.35975041 35.8196076,7.36809264 39.1668447,10.7153297 C42.5140817,14.0625668 44.522424,18.7486986 44.8571477,23.7695542 L48.5432796,23.7695542 C49.212727,23.7695542 49.8821744,24.4390016 49.8821744,25.108449 C49.8821744,25.7778965 49.212727,26.4473439 48.5432796,26.4473439 L44.8571477,26.4473439 C44.522424,31.4681995 42.5140817,36.1543313 39.1668447,39.5015684 C35.8196076,42.8488054 31.4681995,44.8571477 26.1126202,45.1918714 L26.1126202,48.8780033 C26.1126202,49.5474507 25.4431728,50.2168981 24.7737253,50.2168981 C24.1042779,50.2168981 23.4348305,49.5474507 23.4348305,48.8780033 L23.4348305,45.1918714 C18.4139749,44.8571477 13.7278431,42.8488054 10.380606,39.5015684 C7.03336894,36.1543313 5.0250267,31.8029232 4.690303,26.4473439 L1.00417112,26.4473439 C0.334723706,26.4473439 4.54747351e-13,25.7778965 4.54747351e-13,25.108449 C4.54747351e-13,24.4390016 0.669447411,23.7695542 1.33889482,23.7695542 L4.690303,23.7695542 C5.0250267,18.7486986 7.03336894,14.0625668 10.380606,10.7153297 C13.7278431,7.36809264 18.4139749,5.35975041 23.4348305,5.0250267 L23.4348305,1.33889482 C23.4348305,0.669447411 24.1042779,0 24.7737253,0 C25.4431728,0 26.1126202,0.669447411 26.1126202,1.33889482 L26.1126202,5.0250267 Z M24.7737253,23.1001068 C25.7778965,23.1001068 26.7820676,24.1042779 26.7820676,25.108449 C26.7820676,26.1126202 25.7778965,27.1167913 24.7737253,27.1167913 C23.7695542,27.1167913 22.7653831,26.1126202 22.7653831,25.108449 C22.7653831,24.1042779 23.7695542,23.1001068 24.7737253,23.1001068 Z M24.7737253,15.4014616 C27.451515,15.4014616 29.7945809,16.4056327 31.4681995,18.0792512 C33.141818,19.7528698 34.1459891,22.0959357 34.1459891,24.7737253 C34.1459891,27.451515 33.141818,29.7945809 31.4681995,31.4681995 C29.7945809,33.141818 27.451515,34.1459891 24.7737253,34.1459891 C22.0959357,34.1459891 19.7528698,33.141818 18.0792512,31.4681995 C16.4056327,30.1293046 15.0667379,27.7862387 15.0667379,25.108449 C15.0667379,22.4306594 16.070909,20.0875935 17.7445275,18.4139749 C19.7528698,16.7403564 22.0959357,15.4014616 24.7737253,15.4014616 Z M29.7945809,20.0875935 C28.4556861,18.7486986 26.7820676,18.0792512 24.7737253,18.0792512 C22.7653831,18.0792512 21.0917646,18.7486986 19.7528698,20.0875935 C18.4139749,21.4264883 17.7445275,23.1001068 17.7445275,25.108449 C17.7445275,27.1167913 18.4139749,28.7904098 19.7528698,30.1293046 C21.0917646,31.4681995 22.7653831,32.1376469 24.7737253,32.1376469 C26.7820676,32.1376469 28.4556861,31.4681995 29.7945809,30.1293046 C31.1334757,28.7904098 31.8029232,27.1167913 31.8029232,25.108449 C31.8029232,23.1001068 31.1334757,21.4264883 29.7945809,20.0875935 Z M36.1543313,13.7278431 C33.141818,11.0500534 29.1251335,9.04171117 24.7737253,9.04171117 C20.4223172,9.04171117 16.4056327,10.7153297 13.3931193,13.7278431 C10.7153297,16.7403564 8.70698747,20.7570409 8.70698747,25.108449 C8.70698747,29.4598572 10.380606,33.4765417 13.3931193,36.489055 C16.4056327,39.5015684 20.0875935,41.1751869 24.7737253,41.1751869 C29.1251335,41.1751869 33.141818,39.5015684 36.1543313,36.489055 C39.1668447,33.4765417 40.8404632,29.4598572 40.8404632,25.108449 C40.8404632,20.7570409 38.832121,16.7403564 36.1543313,13.7278431 Z" id="形状"></path>
                </g>
            </g>
        </g>
    </g>
</svg>