<?xml version="1.0" encoding="UTF-8"?>
<svg width="30px" height="30px" viewBox="0 0 30 30" version="1.1" xmlns="http://www.w3.org/2000/svg" xmlns:xlink="http://www.w3.org/1999/xlink">
    <!-- Generator: Sketch 52.2 (67145) - http://www.bohemiancoding.com/sketch -->
    <title>danxuan</title>
    <desc>Created with Sketch.</desc>
    <g id="1.0.2" stroke="none" stroke-width="1" fill="none" fill-rule="evenodd">
        <g id="新建--门店信息" transform="translate(-493.000000, -1646.000000)" fill="#4289FF">
            <g id="danxuan" transform="translate(493.000000, 1646.000000)">
                <path d="M9.6,15.1285714 C9.6,18.0872397 11.9984746,20.4857143 14.9571429,20.4857143 C17.9158112,20.4857143 20.3142857,18.0872397 20.3142857,15.1285714 C20.3142857,12.1699031 17.9158112,9.77142857 14.9571429,9.77142857 C11.9984746,9.77142857 9.6,12.1699031 9.6,15.1285714 Z" id="路径"></path>
                <path d="M15,0 C6.75,0 0,6.75 0,15 C0,23.25 6.75,30 15,30 C23.25,30 30,23.25 30,15 C30,6.75 23.25,0 15,0 Z M15,27.8571429 C7.92857143,27.8571429 2.14285714,22.0714286 2.14285714,15 C2.14285714,7.92857143 7.92857143,2.14285714 15,2.14285714 C22.0714286,2.14285714 27.8571429,7.92857143 27.8571429,15 C27.8571429,22.0714286 22.0714286,27.8571429 15,27.8571429 Z" id="形状" fill-rule="nonzero"></path>
            </g>
        </g>
    </g>
</svg>