<?xml version="1.0" encoding="UTF-8"?>
<svg width="27px" height="28px" viewBox="0 0 27 28" version="1.1" xmlns="http://www.w3.org/2000/svg" xmlns:xlink="http://www.w3.org/1999/xlink">
    <!-- Generator: Sketch 52.2 (67145) - http://www.bohemiancoding.com/sketch -->
    <title>rili</title>
    <desc>Created with Sketch.</desc>
    <g id="Page-1" stroke="none" stroke-width="1" fill="none" fill-rule="evenodd">
        <g id="新建服务商--详细信息" transform="translate(-564.000000, -450.000000)" fill="#C3C3C3">
            <g id="rili" transform="translate(564.000000, 450.000000)">
                <path d="M26.1224738,1.22439702 L21.3440429,1.21949727 L21.3440429,0.0398893954 L18.9895766,0.0398893954 L18.9895766,1.21706243 L7.12913975,1.20497837 L7.13289723,0.00961914583 L4.73664776,0.00399795748 L4.73842129,1.20254353 L0.00108215391,1.19773395 L0.000450897461,1.21246327 L0.000931854752,27.3503879 L26.1544274,27.3466605 L26.1225941,1.22457738 L26.1224738,1.22439702 Z M2.34502751,3.57979518 L4.74184812,3.57916392 L4.74362165,4.76842101 L7.11792743,4.78167739 L7.12168491,3.57853267 L18.9895165,3.57513591 L18.9895165,4.76848113 L21.3439828,4.76848113 L21.3439828,3.57444453 L23.7732079,3.57381327 L23.7691498,5.97670596 L2.34006764,5.97805865 L2.34060872,3.57967494 L2.34505757,3.57979518 L2.34502751,3.57979518 Z M2.33558873,24.9968234 L2.3394965,8.35182337 L23.7650316,8.35597162 L23.7367453,24.9968234 L2.33558873,24.9968234 Z" id="形状" fill-rule="nonzero"></path>
                <polygon id="路径" points="9.53726285 10.65119 11.955967 10.65119 11.955967 13.0698942 9.53726285 13.0698942 9.53726285 10.65119"></polygon>
                <polygon id="路径" points="9.53726285 15.4586287 11.955967 15.4586287 11.955967 17.8773328 9.53726285 17.8773328 9.53726285 15.4586287"></polygon>
                <polygon id="路径" points="4.69997477 15.4586287 7.11867893 15.4586287 7.11867893 17.8773328 4.69997477 17.8773328"></polygon>
                <polygon id="路径" points="4.69997477 20.2063384 7.11867893 20.2063384 7.11867893 22.6250426 4.69997477 22.6250426"></polygon>
                <polygon id="路径" points="9.47756403 20.2063384 11.8962682 20.2063384 11.8962682 22.6250426 9.47756403 22.6250426 9.47756403 20.2063384"></polygon>
                <polygon id="路径" points="14.2252437 20.2063384 16.6439479 20.2063384 16.6439479 22.6250426 14.2252437 22.6250426"></polygon>
                <polygon id="路径" points="14.2849726 10.65119 16.7036768 10.65119 16.7036768 13.0698942 14.2849726 13.0698942 14.2849726 10.65119"></polygon>
                <polygon id="路径" points="14.2849726 15.4287492 16.7036768 15.4287492 16.7036768 17.8474533 14.2849726 17.8474533"></polygon>
                <polygon id="路径" points="19.062622 10.65119 21.4813262 10.65119 21.4813262 13.0698942 19.062622 13.0698942 19.062622 10.65119"></polygon>
                <polygon id="路径" points="19.062622 15.4586287 21.4813262 15.4586287 21.4813262 17.8773328 19.062622 17.8773328"></polygon>
            </g>
        </g>
    </g>
</svg>