<?xml version="1.0" encoding="UTF-8"?>
<svg width="25px" height="30px" viewBox="0 0 25 30" version="1.1" xmlns="http://www.w3.org/2000/svg" xmlns:xlink="http://www.w3.org/1999/xlink">
    <!-- Generator: Sketch 52.2 (67145) - http://www.bohemiancoding.com/sketch -->
    <title>dizhi-2</title>
    <desc>Created with Sketch.</desc>
    <g id="Page-1" stroke="none" stroke-width="1" fill="none" fill-rule="evenodd" opacity="0.9">
        <g id="服务商信息详情" transform="translate(-693.000000, -991.000000)" fill="#4289FF" fill-rule="nonzero" stroke="#4289FF" stroke-width="0.5">
            <g id="dizhi-2" transform="translate(694.000000, 992.000000)">
                <path d="M11.8543929,0 C5.34419351,0 0,5.34419351 0,11.95156 C0,13.4090674 0.485835774,14.9637418 1.26317301,16.7127506 C2.1376774,18.4617594 3.40085042,20.3079353 4.85835774,22.2512784 C5.92719644,23.5144515 7.0932023,24.7776245 8.162041,25.9436303 L9.2308797,27.012469 C9.42521401,27.2068033 9.61954832,27.3039705 9.61954832,27.4011376 C10.7855542,28.5671435 12.7288973,28.5671435 13.797736,27.4011376 L14.1864046,27.012469 L15.2552433,25.9436303 C16.4212492,24.7776245 17.4900879,23.5144515 18.5589266,22.2512784 C20.113601,20.4051025 21.376774,18.4617594 22.1541113,16.7127506 C23.0286157,14.9637418 23.4172843,13.4090674 23.4172843,11.95156 C23.7087858,5.34419351 18.3645923,0 11.8543929,0 Z M21.0852726,16.0325805 C20.3079353,17.6844222 19.1419295,19.433431 17.587255,21.2796069 C16.5184163,22.5427799 15.4495776,23.8059529 14.3807389,24.8747916 L13.3119002,25.9436303 L12.9232316,26.3322989 C12.3402287,26.9153019 11.3685571,26.9153019 10.7855542,26.3322989 L10.3968856,25.9436303 L9.32804686,24.8747916 C8.25920815,23.7087858 7.0932023,22.5427799 6.12153075,21.2796069 C4.66402343,19.433431 3.49801757,17.6844222 2.62351318,16.0325805 C1.84617594,14.4779061 1.45750732,13.1175659 1.45750732,11.95156 C1.45750732,6.12153075 6.12153075,1.45750732 11.8543929,1.45750732 C17.587255,1.45750732 22.2512784,6.12153075 22.2512784,11.95156 C22.2512784,13.1175659 21.8626098,14.4779061 21.0852726,16.0325805 Z M11.8543929,6.51019937 C8.93937824,6.51019937 6.70453368,8.84221108 6.70453368,11.7572257 C6.70453368,14.6722404 9.03654539,17.0042521 11.8543929,17.0042521 C14.6722404,17.0042521 17.0042521,14.6722404 17.0042521,11.7572257 C17.0042521,8.84221108 14.7694075,6.51019937 11.8543929,6.51019937 Z M11.8543929,15.4495776 C9.81388263,15.4495776 8.162041,13.797736 8.162041,11.6600586 C8.162041,9.52238117 9.81388263,7.87053954 11.8543929,7.87053954 C13.8949031,7.87053954 15.5467448,9.52238117 15.5467448,11.6600586 C15.5467448,13.797736 13.8949031,15.4495776 11.8543929,15.4495776 Z" id="形状"></path>
            </g>
        </g>
    </g>
</svg>