<?xml version="1.0" encoding="UTF-8"?>
<svg width="16px" height="20px" viewBox="0 0 16 20" version="1.1" xmlns="http://www.w3.org/2000/svg" xmlns:xlink="http://www.w3.org/1999/xlink">
    <!-- Generator: Sketch 52.2 (67145) - http://www.bohemiancoding.com/sketch -->
    <title>mn_paiming_fill</title>
    <desc>Created with Sketch.</desc>
    <g id="Page-1" stroke="none" stroke-width="1" fill="none" fill-rule="evenodd">
        <g id="首页" transform="translate(-338.000000, -434.000000)" fill="#79FFA0" fill-rule="nonzero" stroke="#79FFA0" stroke-width="0.3">
            <g id="mn_paiming_fill" transform="translate(338.000000, 434.000000)">
                <path d="M1.59168507,8.22086957 C1.44152492,8.22086957 1.18181477,8.22086957 0.812554636,8.22086957 C0.812554636,8.60373001 0.812554636,8.86344015 0.812554636,9 L0.812554636,18.9446408 C0.812554636,19.0988883 0.812554636,19.3500945 0.812554636,19.6982592 C1.19922352,19.6982592 1.45893367,19.6982592 1.59168507,19.6982592 L1.96607298,19.6982592 C2.11915734,19.6982592 2.37886748,19.6982592 2.74520341,19.6982592 C2.74520341,19.3297247 2.74520341,19.0785185 2.74520341,18.9446408 L2.74520341,9 C2.74520341,8.86170563 2.74520341,8.60199549 2.74520341,8.22086957 C2.37420875,8.22086957 2.11449861,8.22086957 1.96607298,8.22086957 L1.59168507,8.22086957 Z M8.11673744,0.535074421 L7.7658853,0.535074421 C7.59978203,0.535074421 7.34007189,0.535074421 6.98675486,0.535074421 C6.98675486,0.933877978 6.98675486,1.19358812 6.98675486,1.31420486 L6.98675486,18.9219973 C6.98675486,19.0704478 6.98675486,19.330158 6.98675486,19.7011277 C7.36763724,19.7011277 7.62734738,19.7011277 7.7658853,19.7011277 L8.11673744,19.7011277 C8.26837807,19.7011277 8.52808821,19.7011277 8.89586787,19.7011277 C8.89586787,19.3173062 8.89586787,19.0575961 8.89586787,18.9219973 L8.89586787,1.31420486 C8.89586787,1.18825249 8.89586787,0.928542346 8.89586787,0.535074421 C8.53750646,0.535074421 8.27779632,0.535074421 8.11673744,0.535074421 Z M14.7379184,6 L13.7790262,6 L12.9998958,6 L12.9998958,6.77913043 L12.9998958,18.9219973 C12.9998958,19.0663724 12.9998958,19.3260825 12.9998958,19.7011277 C13.3764518,19.7011277 13.6361619,19.7011277 13.7790262,19.7011277 L14.7379184,19.7011277 C14.8400581,19.7011277 14.9190602,19.7011277 14.9749247,19.7011277 C14.9749247,19.3668071 14.9749247,19.107097 14.9749247,18.9219973 L14.9749247,6.77913043 L14.9749247,6 L14.7379184,6 Z" id="形状"></path>
            </g>
        </g>
    </g>
</svg>