<?xml version="1.0" encoding="UTF-8"?>
<svg width="18px" height="20px" viewBox="0 0 18 20" version="1.1" xmlns="http://www.w3.org/2000/svg" xmlns:xlink="http://www.w3.org/1999/xlink">
    <!-- Generator: Sketch 52.2 (67145) - http://www.bohemiancoding.com/sketch -->
    <title>形状</title>
    <desc>Created with Sketch.</desc>
    <g id="Page-1" stroke="none" stroke-width="1" fill="none" fill-rule="evenodd">
        <g id="首页" transform="translate(-73.000000, -434.000000)" fill="#79FFA0" fill-rule="nonzero" stroke="#79FFA0" stroke-width="0.8">
            <g id="分组-7" transform="translate(32.000000, 361.000000)">
                <g id="trophy_icon" transform="translate(42.000000, 74.000000)">
                    <path d="M15.587022,3.27686799 L12.9594859,3.27686799 L12.9594859,0.504161604 C12.959555,0.415000637 12.959555,0.247605595 12.9594859,0.00197647751 C12.6937226,0.000594683166 12.5128635,-6.40835939e-05 12.4169087,1.77232152e-07 L3.71854144,1.77232171e-07 C3.62258665,-6.40835938e-05 3.4417276,-6.41426712e-05 3.17596429,5.01907272e-14 C3.17589514,0.246946769 3.17589514,0.415000637 3.17596429,0.504161604 L3.17596429,3.27686799 L0.548428143,3.27686799 C0.452473352,3.27680373 0.271614302,3.27680373 0.00585099433,3.27686799 C0.00578183363,3.52381465 0.00578183363,3.69186847 0.00585099433,3.78102944 L0.00585099433,7.81395792 C0.00585099433,9.27417493 2.15487237,10.5180635 3.67830715,10.7766776 C4.54646966,12.6303511 5.37241743,13.904003 7.52514794,14.0894792 L7.52514794,17.1402185 L4.80369576,17.1402185 C4.50403867,17.1402185 4.2611186,17.3659392 4.2611186,17.6443799 C4.2611186,17.9228206 4.50403867,18.1485413 4.80369576,18.1485413 L11.3317544,18.1485413 C11.6314115,18.1485413 11.8743316,17.9228206 11.8743316,17.6443799 C11.8743316,17.3659392 11.6314115,17.1402185 11.3317544,17.1402185 L8.61030224,17.1402185 L8.61030224,14.0894792 C10.7630328,13.904003 11.5889805,12.6303511 12.457143,10.7766776 C13.9805778,10.5184265 16.1295992,9.27417495 16.1295992,7.81395792 L16.1295992,3.78084795 C16.1296338,3.69170794 16.1296338,3.52371462 16.1295992,3.27686799 C15.8638133,3.27680377 15.6829543,3.27680377 15.587022,3.27686799 Z M1.09100531,4.28500938 L3.17615961,4.28500938 L3.17615961,8.57001858 C3.17616297,8.91587618 3.21180734,9.26093887 3.28260473,9.60048244 C2.57420756,9.26709707 1.09100529,8.58580765 1.09100531,7.81395792 L1.09100531,4.28500938 Z M11.8743316,3.78084795 L11.8743316,8.57001858 C11.8732408,9.1060958 11.7692695,9.63769609 11.5673009,10.1398517 C10.8612475,11.9153057 10.0989715,13.1071085 8.06772509,13.1071085 C6.03647873,13.1071085 5.27420272,11.9153057 4.56893055,10.1409406 C4.36673984,9.63772995 4.26250517,9.10613577 4.26111861,8.57001858 L4.26111861,1.00832305 L11.8743316,1.00832305 L11.8743316,3.78084795 Z M15.0444449,7.81395792 C15.0444449,8.58580765 13.5612426,9.26727856 12.8530408,9.6010269 C12.923863,9.26136427 12.9595075,8.91617893 12.9594859,8.57020007 L12.9594859,4.28500938 L15.0446402,4.28500938 L15.0444449,7.81395792 Z" id="形状"></path>
                </g>
            </g>
        </g>
    </g>
</svg>