<?xml version="1.0" encoding="UTF-8"?>
<svg width="60px" height="60px" viewBox="0 0 60 60" version="1.1" xmlns="http://www.w3.org/2000/svg" xmlns:xlink="http://www.w3.org/1999/xlink">
    <!-- Generator: Sketch 52.2 (67145) - http://www.bohemiancoding.com/sketch -->
    <title>Group 3</title>
    <desc>Created with Sketch.</desc>
    <defs>
        <linearGradient x1="50%" y1="0%" x2="50%" y2="100%" id="linearGradient-1">
            <stop stop-color="#7BB9FF" offset="0%"></stop>
            <stop stop-color="#6881FF" offset="100%"></stop>
        </linearGradient>
        <filter x="-30.9%" y="-40.4%" width="161.8%" height="180.8%" filterUnits="objectBoundingBox" id="filter-2">
            <feOffset dx="0" dy="2" in="SourceAlpha" result="shadowOffsetOuter1"></feOffset>
            <feGaussianBlur stdDeviation="1.5" in="shadowOffsetOuter1" result="shadowBlurOuter1"></feGaussianBlur>
            <feColorMatrix values="0 0 0 0 0   0 0 0 0 0.214900218   0 0 0 0 0.887329932  0 0 0 1 0" type="matrix" in="shadowBlurOuter1" result="shadowMatrixOuter1"></feColorMatrix>
            <feMerge>
                <feMergeNode in="shadowMatrixOuter1"></feMergeNode>
                <feMergeNode in="SourceGraphic"></feMergeNode>
            </feMerge>
        </filter>
    </defs>
    <g id="Page-1" stroke="none" stroke-width="1" fill="none" fill-rule="evenodd">
        <g id="首页" transform="translate(-74.000000, -553.000000)">
            <g id="Group-3" transform="translate(74.000000, 553.000000)">
                <circle id="Oval" fill="url(#linearGradient-1)" fill-rule="nonzero" cx="30" cy="30" r="30"></circle>
                <g id="提交" filter="url(#filter-2)" transform="translate(12.857143, 17.857143)">
                    <path d="M32.1370036,11.6579549 C33.0747427,13.0996685 33.5491276,14.7040583 33.5458389,16.4191406 C33.5458389,17.6298959 33.3163885,18.788599 32.8640991,19.8584667 C32.4110561,20.921266 31.7363389,21.8937201 30.8616319,22.7473839 C29.9902136,23.5980969 28.9994796,24.2525416 27.9243717,24.6900619 C26.8492638,25.1253862 25.6850547,25.3437861 24.4615474,25.3437861 L8.12414869,25.3437861 C7.02677405,25.3437861 5.98444971,25.1475178 5.02776676,24.7572117 C4.07550292,24.3713319 3.19247157,23.7880859 2.40669461,23.0269975 C1.61612172,22.2618946 1.01190452,21.3890157 0.611376822,20.4416784 C0.207354956,19.4832581 0,18.4473599 0,17.3553949 C0,15.4761267 0.607882653,13.7891121 1.80597157,12.3415311 C2.40320044,11.6129024 3.10004738,11.0042308 3.88582434,10.532741 C3.86002915,10.3099491 3.84845044,10.0834171 3.84845044,9.85249316 C3.84845044,9.02096098 4.00883965,8.22634918 4.32023178,7.49109823 C4.62004519,6.76988114 5.0804191,6.1058632 5.6846363,5.51115676 C6.28203644,4.93494483 6.95658236,4.48929244 7.69080321,4.1926941 C8.42502405,3.89571832 9.2179949,3.74666427 10.0448455,3.74666427 C10.5939781,3.74666427 11.1245095,3.81343664 11.6246895,3.94035905 C12.2885474,3.07451424 13.1038192,2.31678852 14.045395,1.68557345 C15.7141691,0.567736712 17.6021166,0 19.6561742,0 C21.0240729,0 22.3146545,0.240565822 23.490648,0.720496524 C24.6802755,1.20228011 25.774156,1.92387464 26.7379985,2.86681991 C27.7136939,3.81714241 28.4583972,4.89510787 28.9563506,6.06122247 C29.3636611,7.01487329 29.6082187,8.04339426 29.6822471,9.12503117 C30.6273513,9.77508388 31.4364913,10.5999594 32.0887704,11.5805113 L32.1370036,11.6542835 L32.1370036,11.6579549 Z M16.9762081,20.6574575 C17.4760883,20.6574575 17.8813212,20.2522246 17.8813212,19.7523444 L17.8813212,11.1348726 L20.5822565,13.8402284 C20.5826024,13.8405749 20.5829487,13.8409212 20.5832952,13.8412671 C20.9367612,14.1941634 21.509381,14.1937015 21.8622773,13.8402355 C22.2159017,13.4860402 22.2158671,12.9123708 21.8622001,12.5582181 L17.8790018,8.56955028 L17.6834292,8.37365755 C17.6830477,8.37327547 17.682666,8.3728937 17.6822839,8.37251225 C17.2914465,7.98230129 16.6582818,7.98280911 16.2680708,8.37364648 L16.071095,8.5709385 L12.09045,12.5580984 C11.7368109,12.9123164 11.7368109,13.4860034 12.09045,13.8402213 C12.0907983,13.8405702 12.0911469,13.8409188 12.0914958,13.8412671 C12.4449657,14.1941595 13.0175856,14.1936913 13.3704779,13.8402213 L16.071095,11.1351843 L16.071095,19.7523444 C16.071095,20.2522246 16.4763279,20.6574575 16.9762081,20.6574575 Z" id="Combined-Shape" fill="#FFFFFF" fill-rule="nonzero"></path>
                    <g id="system-dowload" transform="translate(16.785714, 13.846154) rotate(-180.000000) translate(-16.785714, -13.846154) translate(10.861345, 6.923077)"></g>
                </g>
            </g>
        </g>
    </g>
</svg>