<?xml version="1.0" encoding="UTF-8"?>
<svg width="64px" height="64px" viewBox="0 0 64 64" version="1.1" xmlns="http://www.w3.org/2000/svg" xmlns:xlink="http://www.w3.org/1999/xlink">
    <!-- Generator: Sketch 52.2 (67145) - http://www.bohemiancoding.com/sketch -->
    <title>Group 3</title>
    <desc>Created with Sketch.</desc>
    <defs>
        <linearGradient x1="50%" y1="0%" x2="50%" y2="100%" id="linearGradient-1">
            <stop stop-color="#E3E3E3" offset="0%"></stop>
            <stop stop-color="#ACACAC" offset="100%"></stop>
        </linearGradient>
        <filter x="-29.0%" y="-37.9%" width="157.9%" height="176.7%" filterUnits="objectBoundingBox" id="filter-2">
            <feOffset dx="0" dy="2" in="SourceAlpha" result="shadowOffsetOuter1"></feOffset>
            <feGaussianBlur stdDeviation="1.5" in="shadowOffsetOuter1" result="shadowBlurOuter1"></feGaussianBlur>
            <feColorMatrix values="0 0 0 0 0.513100553   0 0 0 0 0.513100553   0 0 0 0 0.513100553  0 0 0 1 0" type="matrix" in="shadowBlurOuter1" result="shadowMatrixOuter1"></feColorMatrix>
            <feMerge>
                <feMergeNode in="shadowMatrixOuter1"></feMergeNode>
                <feMergeNode in="SourceGraphic"></feMergeNode>
            </feMerge>
        </filter>
    </defs>
    <g id="1.0.2" stroke="none" stroke-width="1" fill="none" fill-rule="evenodd">
        <g id="首页-" transform="translate(-74.000000, -692.000000)">
            <g id="Group-3" transform="translate(74.000000, 692.000000)">
                <circle id="Oval" fill="url(#linearGradient-1)" fill-rule="nonzero" cx="32" cy="32" r="32"></circle>
                <g id="提交" filter="url(#filter-2)" transform="translate(13.714286, 19.047619)">
                    <path d="M34.2794706,12.4351519 C35.2797256,13.9729798 35.7857361,15.6843289 35.7822282,17.51375 C35.7822282,18.8052223 35.537481,20.0411723 35.0550391,21.1823645 C34.5717932,22.316017 33.8520948,23.3533015 32.9190741,24.2638762 C31.9895611,25.1713033 30.9327782,25.8693777 29.7859965,26.336066 C28.6392148,26.8004119 27.3973916,27.0333718 26.0923172,27.0333718 L8.6657586,27.0333718 C7.49522566,27.0333718 6.38341302,26.824019 5.36295121,26.4076925 C4.34720311,25.9960874 3.40530301,25.3739583 2.56714091,24.5621307 C1.72386317,23.7460209 1.07936482,22.8149501 0.652135277,21.804457 C0.22117862,20.782142 0,19.6771839 0,18.5124213 C0,16.5078685 0.648408163,14.7083863 1.92636968,13.1642998 C2.5634138,12.3870959 3.3067172,11.7378462 4.1448793,11.2349237 C4.11736443,10.997279 4.1050138,10.7556449 4.1050138,10.509326 C4.1050138,9.62235838 4.27609563,8.77477246 4.60824723,7.99050478 C4.9280482,7.22120655 5.4191137,6.51292074 6.06361205,5.87856721 C6.70083887,5.26394115 7.42035452,4.78857861 8.20352342,4.47220704 C8.98669232,4.15543288 9.83252789,3.99644189 10.7145018,3.99644189 C11.3002433,3.99644189 11.8661434,4.06766575 12.3996688,4.20304965 C13.1077839,3.27948186 13.9774072,2.47124109 14.9817547,1.79794501 C16.7617804,0.605585826 18.7755911,0 20.9665858,0 C22.4256777,0 23.8022982,0.256603543 25.0566912,0.768529625 C26.3256272,1.28243211 27.492433,2.05213294 28.5205318,3.05794124 C29.5612735,4.07161857 30.3556237,5.2214484 30.886774,6.46530397 C31.3212385,7.48253151 31.5820999,8.57962054 31.6610636,9.73336658 C32.6691747,10.4267561 33.5322573,11.3066234 34.2280218,12.3525454 L34.2794706,12.4312357 L34.2794706,12.4351519 Z M18.1079553,22.0346214 C18.6411608,22.0346214 19.0734093,21.6023729 19.0734093,21.0691674 L19.0734093,11.8771975 L21.9544069,14.7629103 C21.9547759,14.7632799 21.9551452,14.7636493 21.9555149,14.7640183 C22.3325453,15.140441 22.9433398,15.1399483 23.3197625,14.7629179 C23.6969618,14.3851095 23.6969249,13.7731955 23.3196801,13.3954326 L19.0709353,9.14085363 L18.8151462,8.88464593 C18.8147648,8.88426385 18.814383,8.88388208 18.8140009,8.88350062 C18.4231636,8.49328967 17.7899988,8.49379748 17.3997878,8.88463486 L17.1425013,9.1423344 L12.89648,13.395305 C12.519265,13.7731375 12.519265,14.3850703 12.89648,14.7629028 C12.8968515,14.7632749 12.8972234,14.7636467 12.8975955,14.7640183 C13.2746301,15.1404368 13.8854246,15.1399374 14.2618431,14.7629028 L17.1425013,11.8775299 L17.1425013,21.0691674 C17.1425013,21.6023729 17.5747498,22.0346214 18.1079553,22.0346214 Z" id="Combined-Shape" fill="#FFFFFF" fill-rule="nonzero"></path>
                    <g id="system-dowload" transform="translate(17.904762, 14.769231) rotate(-180.000000) translate(-17.904762, -14.769231) translate(11.585434, 7.384615)"></g>
                </g>
            </g>
        </g>
    </g>
</svg>