<?xml version="1.0" encoding="UTF-8"?>
<svg width="44px" height="12px" viewBox="0 0 44 12" version="1.1" xmlns="http://www.w3.org/2000/svg" xmlns:xlink="http://www.w3.org/1999/xlink">
    <!-- Generator: Sketch 52.2 (67145) - http://www.bohemiancoding.com/sketch -->
    <title>INPUT</title>
    <desc>Created with Sketch.</desc>
    <g id="1.0.2" stroke="none" stroke-width="1" fill="none" fill-rule="evenodd">
        <g id="首页-" transform="translate(-166.000000, -740.000000)" fill="#C9C9C9">
            <path d="M168.009182,751.662025 L166.922852,751.662025 L166.922852,740.135742 L168.009182,740.135742 L168.009182,751.662025 Z M171.244209,751.662025 L170.165867,751.662025 L170.165867,740.135742 L171.244209,740.135742 L178.001822,749.760947 L178.057736,749.760947 L178.057736,740.135742 L179.136078,740.135742 L179.136078,751.662025 L178.081699,751.662025 L171.300123,742.028832 L171.244209,742.028832 L171.244209,751.662025 Z M181.292763,740.135742 L185.382476,740.135742 C187.5791,740.135742 189.080792,741.58152 189.080792,743.722229 C189.080792,745.862939 187.571112,747.316704 185.374489,747.316704 L182.379093,747.316704 L182.379093,751.662025 L181.292763,751.662025 L181.292763,740.135742 Z M182.379093,741.110244 L182.379093,746.342202 L185.126869,746.342202 C186.900144,746.342202 187.96251,745.359712 187.96251,743.722229 C187.96251,742.084746 186.908131,741.110244 185.126869,741.110244 L182.379093,741.110244 Z M191.732715,740.135742 L191.732715,747.572311 C191.732715,749.50534 192.994775,750.831302 195.103534,750.831302 C197.22028,750.831302 198.474352,749.50534 198.474352,747.572311 L198.474352,740.135742 L199.56867,740.135742 L199.56867,747.636213 C199.56867,750.120394 197.875273,751.845742 195.103534,751.845742 C192.331794,751.845742 190.646385,750.120394 190.646385,747.636213 L190.646385,740.135742 L191.732715,740.135742 Z M205.894946,751.662025 L204.800628,751.662025 L204.800628,741.12622 L200.942558,741.12622 L200.942558,740.135742 L209.753015,740.135742 L209.753015,741.12622 L205.894946,741.12622 L205.894946,751.662025 Z" id="INPUT"></path>
        </g>
    </g>
</svg>