<?xml version="1.0" encoding="UTF-8"?>
<svg width="34px" height="23px" viewBox="0 0 34 23" version="1.1" xmlns="http://www.w3.org/2000/svg" xmlns:xlink="http://www.w3.org/1999/xlink">
    <!-- Generator: Sketch 52.2 (67145) - http://www.bohemiancoding.com/sketch -->
    <title>yanjing-4 copy</title>
    <desc>Created with Sketch.</desc>
    <g id="Page-1" stroke="none" stroke-width="1" fill="none" fill-rule="evenodd">
        <g id="iPhone-8-Copy-3" transform="translate(-122.000000, -576.000000)" fill="#CCCCCC">
            <g id="yanjing-4-copy" transform="translate(122.000000, 576.000000)">
                <path d="M16.9869989,2.32175688 C23.377006,2.32175688 28.8772118,6.06973745 31.451172,11.4792134 L33.959404,11.4792134 C31.240902,4.77025651 24.6717355,0.0332600751 16.9869612,0.0332600751 C9.30343128,0.0332600751 2.73426477,4.77025651 0.0158004212,11.4792134 L2.52407015,11.4791757 C5.09795498,6.06973745 10.5981608,2.32171917 16.9869989,2.32171917 L16.9869989,2.32175688 Z" id="路径"></path>
                <path d="M16.9869989,20.6366322 C10.5981985,20.6366322 5.09795498,16.8886516 2.52407015,11.4791757 L0.0158004212,11.4791757 C2.73422706,18.1893393 9.30339357,22.926298 16.9869989,22.926298 C24.6717355,22.926298 31.2409397,18.1893016 33.959404,11.4791757 L31.4511343,11.4791757 C28.877174,16.8886516 23.377006,20.6366322 16.9869612,20.6366322 L16.9869989,20.6366322 Z" id="路径"></path>
                <path d="M10.8828323,11.479779 C10.8828323,14.8514909 13.615815,17.5844735 16.9874891,17.5844735 C20.3592763,17.5844735 23.0921836,14.8514909 23.0921836,11.479779 C23.0921836,8.10799178 20.3592763,5.37508457 16.9874891,5.37508457 C13.6157773,5.37508457 10.8828323,8.10799178 10.8828323,11.479779 Z M20.8036868,11.479779 C20.8036868,13.5870047 19.094677,15.2959013 16.9874891,15.2959013 C14.8803012,15.2959013 13.1725359,13.5869669 13.1725359,11.479779 C13.1725359,9.37255341 14.8803012,7.66354366 16.9874891,7.66354366 C19.094677,7.66354366 20.8036868,9.37255341 20.8036868,11.479779 Z" id="形状" fill-rule="nonzero"></path>
            </g>
        </g>
    </g>
</svg>