<?xml version="1.0" encoding="UTF-8"?>
<svg width="102px" height="102px" viewBox="0 0 102 102" version="1.1" xmlns="http://www.w3.org/2000/svg" xmlns:xlink="http://www.w3.org/1999/xlink">
    <!-- Generator: Sketch 52.2 (67145) - http://www.bohemiancoding.com/sketch -->
    <title>分组 4</title>
    <desc>Created with Sketch.</desc>
    <defs>
        <rect id="path-1" x="0" y="0" width="84" height="84" rx="22"></rect>
        <filter x="-20.2%" y="-11.9%" width="140.5%" height="140.5%" filterUnits="objectBoundingBox" id="filter-2">
            <feMorphology radius="0.5" operator="dilate" in="SourceAlpha" result="shadowSpreadOuter1"></feMorphology>
            <feOffset dx="0" dy="7" in="shadowSpreadOuter1" result="shadowOffsetOuter1"></feOffset>
            <feGaussianBlur stdDeviation="4" in="shadowOffsetOuter1" result="shadowBlurOuter1"></feGaussianBlur>
            <feColorMatrix values="0 0 0 0 0.102052903   0 0 0 0 0.175474096   0 0 0 0 0.504570578  0 0 0 0.133265399 0" type="matrix" in="shadowBlurOuter1"></feColorMatrix>
        </filter>
    </defs>
    <g id="Page-1" stroke="none" stroke-width="1" fill="none" fill-rule="evenodd">
        <g id="首页" transform="translate(-324.000000, -167.000000)">
            <g id="分组-4" transform="translate(333.000000, 169.000000)">
                <g id="矩形" fill-rule="nonzero">
                    <use fill="black" fill-opacity="1" filter="url(#filter-2)" xlink:href="#path-1"></use>
                    <use fill="#FFFFFF" xlink:href="#path-1"></use>
                </g>
                <g id="1100191" transform="translate(21.000000, 17.000000)">
                    <path d="M11.6361328,38.1091553 L30.2541503,38.1091553 C36.6807861,38.1091553 41.8902831,43.319165 41.8902831,49.7458008 L41.8902831,67.2 L0,67.2 L0,49.7458008 C0,43.319165 5.20949704,38.1091553 11.6361328,38.1091553 Z" id="路径" fill="#E6E6E6"></path>
                    <polygon id="路径" fill="#B3B3B3" points="5.81806641 50.9091064 8.14519046 50.9091064 8.14519046 67.2 5.81806641 67.2"></polygon>
                    <polygon id="路径" fill="#B3B3B3" points="33.7450928 50.9091064 36.0722169 50.9091064 36.0722169 67.2 33.7450928 67.2"></polygon>
                    <polygon id="路径" fill="#CCCCCC" points="20.9451416 41.6000977 15.1270752 47.4181641 12.6845947 40.0912353"></polygon>
                    <polygon id="路径" fill="#CCCCCC" points="20.9451416 41.6000977 26.763208 47.4181641 29.2056884 40.0912353"></polygon>
                    <polygon id="路径" fill="#0071BC" points="18.6180175 48.5819825 17.4541992 45.09104 20.9451416 41.6000977 24.436084 45.09104 23.2722656 48.5819825"></polygon>
                    <polygon id="路径" fill="#005D9C" points="17.4541992 61.3819336 18.6180175 48.5819825 23.2722656 48.5819825 24.436084 61.3819336 20.9451416 64.8728759"></polygon>
                    <path d="M36.0722169,10.1826416 L36.0722169,28.6724853 C36.0722169,31.7583984 34.9683838,34.7427978 32.9596436,37.0853028 C30.503833,39.9512695 26.9185547,41.6006103 23.1446045,41.6000977 L18.7461914,41.6000977 C14.9722412,41.6006103 11.3864502,39.9512695 8.93063968,37.0853028 C6.92241217,34.7427978 5.81806641,31.7583984 5.81806641,28.6724853 L5.81806641,10.1826416 L36.0722169,10.1826416 Z" id="路径" fill="#F2C09A"></path>
                    <path d="M12.421582,37.0853028 C10.4128419,34.7427978 9.30900876,31.7583984 9.30900876,28.6724853 L9.30900876,10.1826416 L5.81806641,10.1826416 L5.81806641,28.6724853 C5.81857907,35.8117675 11.6063965,41.599585 18.7461914,41.6000977 L22.2366211,41.6000978 C18.4626709,41.6006103 14.8773925,39.9512695 12.421582,37.0853028 Z" id="路径" fill="#E8B894"></path>
                    <path d="M20.9451416,28.8001465 L19.7818359,28.8001465 C19.138916,28.8001465 18.6180175,28.2792481 18.6180175,27.6368408 C18.6180175,26.9939209 19.138916,26.4730225 19.7818359,26.4730225 L20.9451416,26.4730225 L20.9451416,21.8187744 C20.9451416,20.5334472 21.9869384,19.4911377 23.2722656,19.4911377 L29.0908447,19.4911377 C29.7332519,19.4911377 30.2541503,20.0125488 30.2541503,20.6549561 C30.2541503,21.2978759 29.7332519,21.8187744 29.0908447,21.8187744 L23.2722656,21.8187744 L23.2722656,26.4730225 C23.2722656,27.7583497 22.2304688,28.8001465 20.9451416,28.8001465 Z" id="路径" fill="#A67C52"></path>
                    <path d="M17.4541992,21.8187744 L12.7999512,21.8187744 C12.1570312,21.8187744 11.6361328,21.2978759 11.6361328,20.6549561 C11.6361328,20.0125488 12.1570312,19.4916503 12.7999512,19.4916503 L17.4541992,19.4916503 C18.0971191,19.4916503 18.6180175,20.0125488 18.6180175,20.6549561 C18.6180175,21.2978759 18.0971191,21.8187744 17.4541992,21.8187744 Z" id="路径" fill="#A67C52"></path>
                    <path d="M36.0722169,19.4916503 L37.2360352,19.4916503 C39.1637695,19.4916503 40.7269775,21.0543456 40.7269775,22.98208 C40.7269775,24.9103272 39.1637695,26.4730225 37.2360352,26.4730225 L36.0722169,26.4730225 L36.0722169,19.4916503 Z" id="路径" fill="#CC9C72"></path>
                    <path d="M5.81806641,26.4730225 L4.65476077,26.4730225 C2.72651374,26.4730225 1.16381843,24.9103272 1.16381843,22.98208 C1.16381843,21.0543456 2.72651374,19.4916503 4.65476077,19.4916503 L5.81806641,19.4916503 L5.81806641,26.4730225 Z" id="路径" fill="#CC9C72"></path>
                    <g id="分组" transform="translate(13.912500, 22.968750)" fill="#A67C52">
                        <path d="M2.37839359,1.17714844 C2.37839359,1.81955563 1.85749515,2.34096686 1.21457516,2.34096686 C0.572167969,2.34096686 0.0512695312,1.81955563 0.0512695312,1.17714844 C0.0512695312,0.534741244 0.572167969,0.0133300125 1.21457516,0.0133300125 C1.85749515,0.0133300125 2.37839359,0.534741244 2.37839359,1.17714844 Z" id="路径"></path>
                        <path d="M14.0145264,1.17714844 C14.0145264,1.81955563 13.493628,2.34096686 12.850708,2.34096686 C12.2083008,2.34096686 11.6874023,1.81955563 11.6874023,1.17714844 C11.6874023,0.534741244 12.2083008,0.0133300125 12.850708,0.0133300125 C13.493628,0.0133300125 14.0145264,0.534741244 14.0145264,1.17714844 Z" id="路径"></path>
                        <path d="M8.19645999,15.1404053 L5.86933594,15.1404053 C5.22641595,15.1404053 4.70551751,14.6195069 4.70551751,13.9770997 C4.70551751,13.3341797 5.22641595,12.8132813 5.86933594,12.8132813 L8.19645999,12.8132813 C8.83886719,12.8132813 9.35976562,13.3341797 9.35976562,13.9770997 C9.35976562,14.6195069 8.83886719,15.1404053 8.19645999,15.1404053 Z" id="路径"></path>
                    </g>
                    <path d="M28.3494873,0.0927978188 L12.8512206,2.23022468 L12.7999512,2.23945313 L12.7999512,11.3459472 L35.7697266,13.3428955 C37.6902831,13.5100342 39.3832031,12.08833 39.5498291,10.1677734 C39.5590576,10.0672852 39.5631592,9.96679688 39.5631592,9.86579593 C39.5636719,4.41738281 35.1473144,0.000512695313 29.6989014,0 C29.2472169,0 28.7965576,0.0307617188 28.3494873,0.0927978188 Z" id="路径" fill="#534741"></path>
                    <path d="M5.81806641,10.2990234 L5.81806641,19.4916503 L12.7999512,11.3459472 L12.7999512,2.23945312 C8.79323734,2.81777344 5.81960452,6.25078125 5.81806641,10.2990234 Z" id="路径" fill="#736357"></path>
                    <path d="M9.30900876,10.36875 C9.30952155,7.52636719 10.5917725,4.83625485 12.7999512,3.04694828 L12.7999512,2.23945312 C9.08752438,2.77573249 6.22155765,5.77807624 5.85754391,9.51101077 C5.83190921,9.79401859 5.81806641,10.0790772 5.81806641,10.36875 L5.81806641,19.4916503 L9.30900876,15.4187988 L9.30900876,10.36875 Z" id="路径" fill="#5E5147"></path>
                </g>
            </g>
        </g>
    </g>
</svg>