<?xml version="1.0" encoding="UTF-8"?>
<svg width="60px" height="60px" viewBox="0 0 60 60" version="1.1" xmlns="http://www.w3.org/2000/svg" xmlns:xlink="http://www.w3.org/1999/xlink">
    <!-- Generator: Sketch 52.2 (67145) - http://www.bohemiancoding.com/sketch -->
    <title>Group 3 Copy</title>
    <desc>Created with Sketch.</desc>
    <defs>
        <linearGradient x1="50%" y1="0%" x2="50%" y2="100%" id="linearGradient-1">
            <stop stop-color="#7BB9FF" offset="0%"></stop>
            <stop stop-color="#6881FF" offset="100%"></stop>
        </linearGradient>
        <filter x="-35.0%" y="-35.0%" width="170.0%" height="170.0%" filterUnits="objectBoundingBox" id="filter-2">
            <feOffset dx="0" dy="2" in="SourceAlpha" result="shadowOffsetOuter1"></feOffset>
            <feGaussianBlur stdDeviation="1.5" in="shadowOffsetOuter1" result="shadowBlurOuter1"></feGaussianBlur>
            <feColorMatrix values="0 0 0 0 0   0 0 0 0 0.214900218   0 0 0 0 0.887329932  0 0 0 1 0" type="matrix" in="shadowBlurOuter1" result="shadowMatrixOuter1"></feColorMatrix>
            <feMerge>
                <feMergeNode in="shadowMatrixOuter1"></feMergeNode>
                <feMergeNode in="SourceGraphic"></feMergeNode>
            </feMerge>
        </filter>
    </defs>
    <g id="Page-1" stroke="none" stroke-width="1" fill="none" fill-rule="evenodd">
        <g id="首页" transform="translate(-74.000000, -688.000000)">
            <g id="Group-3-Copy" transform="translate(74.000000, 688.000000)">
                <circle id="Oval" fill="url(#linearGradient-1)" fill-rule="nonzero" cx="30" cy="30" r="30"></circle>
                <g id="提交" filter="url(#filter-2)" transform="translate(15.000000, 15.000000)">
                    <g id="tianjia" fill="#FFFFFF" fill-rule="nonzero">
                        <path d="M14.9994712,30 C6.71496563,30 0,23.28374 0,15 C0,6.71520237 6.71496563,0 14.9994712,0 C23.2829191,0 30,6.71520237 30,15 C30,23.2847976 23.2829191,30 14.9994712,30 Z M16.1044306,14.0862041 L16.1044306,8.60364733 C16.1044306,7.99411974 15.6103109,7.5 15.0007833,7.5 L15.0007833,7.5 C14.3912557,7.5 13.8971359,7.99411974 13.8971359,8.60364733 L13.8971359,14.0862041 L8.53421848,14.0862041 C7.96318135,14.0862041 7.50026429,14.5491212 7.50026429,15.1201583 C7.50026429,15.1203345 7.50026433,15.1205107 7.50026442,15.1206869 L7.50026442,15.1206869 C7.50055653,15.6921015 7.9638615,16.1551696 8.53527615,16.1551696 L13.8971359,16.1551696 L13.8962623,21.3963527 C13.8961607,22.0057786 14.3901157,22.4998984 14.9995417,22.5 C14.999603,22.5 14.9996643,22.5 14.9997256,22.5 L14.9997256,22.5 C15.609283,22.5 16.1034553,22.00591 16.1035569,21.3963527 L16.1044306,16.1551696 L21.4657815,16.1551696 C22.0368187,16.1551696 22.4997357,15.6922526 22.4997357,15.1212154 C22.4997357,15.1210392 22.4997357,15.1208631 22.4997356,15.1206869 L22.4997356,15.1206869 C22.4994435,14.5492723 22.0361385,14.0862041 21.4647239,14.0862041 L16.1044306,14.0862041 Z" id="形状"></path>
                    </g>
                    <g id="system-dowload" transform="translate(13.785714, 14.846154) rotate(-180.000000) translate(-13.785714, -14.846154) translate(7.861345, 7.923077)"></g>
                </g>
            </g>
        </g>
    </g>
</svg>