<?xml version="1.0" encoding="UTF-8"?>
<svg width="43px" height="39px" viewBox="0 0 43 39" version="1.1" xmlns="http://www.w3.org/2000/svg" xmlns:xlink="http://www.w3.org/1999/xlink">
    <!-- Generator: Sketch 52.2 (67145) - http://www.bohemiancoding.com/sketch -->
    <title>xianxing_shangdian</title>
    <desc>Created with Sketch.</desc>
    <g id="1.0.2" stroke="none" stroke-width="1" fill="none" fill-rule="evenodd">
        <g id="底部ICON" transform="translate(-410.000000, -125.000000)" fill="#4289FF" fill-rule="nonzero" stroke="#4289FF" stroke-width="0.6">
            <g id="xianxing_shangdian" transform="translate(411.000000, 126.000000)">
                <path d="M39.7259646,9.3403125 L37.098201,0.932109375 L36.7911037,0.03203125 L35.8750076,0.03203125 L5.12500761,0.03203125 L4.12697333,0.03203125 L3.90221464,0.930908203 L1.27445097,9.33911133 C0.440939195,10.6086138 -0.00214410318,12.0946063 7.60742185e-06,13.6132813 C7.60742185e-06,17.9226855 3.50622831,21.4289063 7.81563261,21.4289063 C10.4750417,21.4280349 12.9515113,20.0749295 14.3888455,17.8374023 C15.775121,19.8457452 18.0596796,21.0447659 20.5000076,21.0447659 C22.9403356,21.0447659 25.2248942,19.8457452 26.6111697,17.8374023 C28.048504,20.0749295 30.5249735,21.4280349 33.1843826,21.4289063 C37.4937869,21.4289063 41.0000076,17.9226855 41.0000076,13.6132813 C41.0020434,12.095056 40.5591101,10.6095173 39.7259646,9.3403125 Z M34.5937576,25.6812364 L34.5937576,34.2414063 L6.40625761,34.2414063 L6.40625761,25.6812364 L3.84375761,25.6812364 L3.84375761,35.5226563 L3.84375761,36.7569383 L5.12500761,36.8039063 L35.8750076,36.8039063 L37.1562576,36.7569383 L37.1562576,35.5226563 L37.1562576,25.6812364 L34.5937576,25.6812364 Z" id="形状"></path>
            </g>
        </g>
    </g>
</svg>