<?xml version="1.0" encoding="UTF-8"?>
<svg width="43px" height="39px" viewBox="0 0 43 39" version="1.1" xmlns="http://www.w3.org/2000/svg" xmlns:xlink="http://www.w3.org/1999/xlink">
    <!-- Generator: Sketch 52.2 (67145) - http://www.bohemiancoding.com/sketch -->
    <title>xianxing_shangdian copy</title>
    <desc>Created with Sketch.</desc>
    <g id="1.0.2" stroke="none" stroke-width="1" fill="none" fill-rule="evenodd" opacity="0.56">
        <g id="底部ICON" transform="translate(-410.000000, -53.000000)" fill="#292930" fill-rule="nonzero" stroke="#292930" stroke-width="0.6">
            <g id="xianxing_shangdian-copy" transform="translate(411.000000, 54.000000)">
                <path d="M39.7259646,9.3403125 L37.098201,0.932109375 L36.7911037,0.03203125 L35.8750076,0.03203125 L5.12500761,0.03203125 L4.12697333,0.03203125 L3.90221464,0.930908203 L1.27445097,9.33911133 C0.440939195,10.6086138 -0.00214410318,12.0946063 7.60742185e-06,13.6132813 C7.60742185e-06,17.9226855 3.50622831,21.4289063 7.81563261,21.4289063 C10.4750417,21.4280349 12.9515113,20.0749295 14.3888455,17.8374023 C15.775121,19.8457452 18.0596796,21.0447659 20.5000076,21.0447659 C22.9403356,21.0447659 25.2248942,19.8457452 26.6111697,17.8374023 C28.048504,20.0749295 30.5249735,21.4280349 33.1843826,21.4289063 C37.4937869,21.4289063 41.0000076,17.9226855 41.0000076,13.6132813 C41.0020434,12.095056 40.5591101,10.6095173 39.7259646,9.3403125 Z M33.1843826,18.8664063 C30.2879568,18.8664063 27.9312576,16.509707 27.9312576,13.6132813 C27.9312576,12.9056664 27.3576224,12.3320313 26.6500076,12.3320313 C25.9423928,12.3320313 25.3687576,12.9056664 25.3687576,13.6132813 C25.3687576,15.3527181 24.4407791,16.9600241 22.9343826,17.8297425 C21.4279861,18.699461 19.5720291,18.699461 18.0656326,17.8297425 C16.5592361,16.9600241 15.6312576,15.3527181 15.6312576,13.6132813 C15.6312576,12.9056664 15.0576224,12.3320313 14.3500076,12.3320313 C13.6423928,12.3320313 13.0687576,12.9056664 13.0687576,13.6132813 C13.0687576,16.509707 10.7120584,18.8664063 7.81563261,18.8664063 C4.91920683,18.8664063 2.56250761,16.509707 2.56250761,13.6132813 C2.56127434,12.5469317 2.88670897,11.5057924 3.49501737,10.6299707 C3.56868995,10.5234811 3.62579375,10.4064386 3.66438261,10.282832 L6.06672636,2.59533203 L34.9328885,2.59533203 L37.3352322,10.282832 C37.3738211,10.4064386 37.4309249,10.5234811 37.5045975,10.6299707 C38.1130478,11.5057458 38.4386233,12.5468889 38.4375076,13.6132813 C38.4375076,16.509707 36.0808084,18.8664063 33.1843826,18.8664063 Z M34.5937576,25.6812364 L34.5937576,34.2414063 L6.40625761,34.2414063 L6.40625761,25.6812364 L3.84375761,25.6812364 L3.84375761,35.5226563 L3.84375761,36.7569383 L5.12500761,36.8039063 L35.8750076,36.8039063 L37.1562576,36.7569383 L37.1562576,35.5226563 L37.1562576,25.6812364 L34.5937576,25.6812364 Z" id="形状"></path>
            </g>
        </g>
    </g>
</svg>