<?xml version="1.0" encoding="UTF-8"?>
<svg width="40px" height="36px" viewBox="0 0 40 36" version="1.1" xmlns="http://www.w3.org/2000/svg" xmlns:xlink="http://www.w3.org/1999/xlink">
    <!-- Generator: Sketch 52.2 (67145) - http://www.bohemiancoding.com/sketch -->
    <title>笑脸</title>
    <desc>Created with Sketch.</desc>
    <g id="Page-1" stroke="none" stroke-width="1" fill="none" fill-rule="evenodd">
        <g id="登录" transform="translate(-50.000000, -253.000000)" fill="#2F65FF" fill-rule="nonzero" stroke="#5089FF">
            <g id="笑脸" transform="translate(50.000000, 253.000000)">
                <path d="M0.909090909,4.43181818 C0.909090909,2.475 2.53181818,0.852272727 4.48863636,0.852272727 C6.44545455,0.852272727 8.06818182,2.475 8.06818182,4.43181818 C8.06818182,6.38863636 6.44545455,8.01136364 4.48863636,8.01136364 C2.53181818,8.01136364 0.909090909,6.38863636 0.909090909,4.43181818 Z M35.5113636,0.852272727 C33.5545455,0.852272727 31.9318182,2.475 31.9318182,4.43181818 C31.9318182,6.38863636 33.5545455,8.01136364 35.5113636,8.01136364 C37.4681818,8.01136364 39.0909091,6.38863636 39.0909091,4.43181818 C39.0909091,2.475 37.4681818,0.852272727 35.5113636,0.852272727 Z M37.0386364,16.4113636 C35.7368215,16.2255277 34.5263232,17.1174738 34.3181818,18.4159091 C33.3159091,25.3840909 27.1590909,30.6818182 20,30.6818182 C13.0795455,30.6818182 6.77954545,25.2886364 5.63409091,18.3681818 C5.54071838,17.7440738 5.19908727,17.1841888 4.68679479,16.8156977 C4.1745023,16.4472066 3.53503375,16.3013883 2.91363636,16.4113636 C2.28952832,16.5047362 1.72964335,16.8463673 1.36115226,17.3586598 C0.992661172,17.8709522 0.846842884,18.5104208 0.956818182,19.1318182 C2.48409091,28.4386364 10.6931818,35.4545455 20,35.4545455 C29.4977273,35.4545455 37.6590909,28.4386364 39.0431818,19.0840909 C39.1495856,18.4612074 38.9950824,17.8219803 38.6159386,17.3164552 C38.2367947,16.8109301 37.6663976,16.4836234 37.0386364,16.4113636 Z" id="Shape"></path>
            </g>
        </g>
    </g>
</svg>