<?xml version="1.0" encoding="UTF-8"?>
<svg width="21px" height="26px" viewBox="0 0 21 26" version="1.1" xmlns="http://www.w3.org/2000/svg" xmlns:xlink="http://www.w3.org/1999/xlink">
    <!-- Generator: Sketch 52.2 (67145) - http://www.bohemiancoding.com/sketch -->
    <title>dizhi</title>
    <desc>Created with Sketch.</desc>
    <g id="1.1" stroke="none" stroke-width="1" fill="none" fill-rule="evenodd">
        <g id="服务商信息详情--资料" transform="translate(-37.000000, -303.000000)" fill="#4289FF" fill-rule="nonzero">
            <g id="dizhi" transform="translate(37.000000, 303.000000)">
                <path d="M10.3110896,0.0082731531 C4.63172386,0.0082731531 0.0277169002,4.56843243 0.0277169002,10.193709 C0.0277169002,15.8191315 8.08651222,24.4281436 8.08651222,24.4281436 C9.31510214,25.8486211 11.3258221,25.8561528 12.5424164,24.4205827 C12.5424164,24.4205827 20.5944624,15.8191024 20.5944624,10.193709 C20.5944624,4.56843246 15.9905733,0.0082731531 10.3110896,0.0082731531 Z M10.3110896,14.5800854 C7.68343687,14.5800854 5.55396944,12.4706651 5.55396944,9.86827111 C5.55396944,7.26590635 7.68346633,5.15645682 10.3110896,5.15645682 C12.9385066,5.15645682 15.0680919,7.26590635 15.0680919,9.86827111 C15.0680919,12.4706651 12.9385066,14.5800854 10.3110896,14.5800854 Z" id="形状"></path>
            </g>
        </g>
    </g>
</svg>