<?xml version="1.0" encoding="UTF-8"?>
<svg width="25px" height="25px" viewBox="0 0 25 25" version="1.1" xmlns="http://www.w3.org/2000/svg" xmlns:xlink="http://www.w3.org/1999/xlink">
    <!-- Generator: Sketch 52.2 (67145) - http://www.bohemiancoding.com/sketch -->
    <title>分组 4</title>
    <desc>Created with Sketch.</desc>
    <g id="1.0.2" stroke="none" stroke-width="1" fill="none" fill-rule="evenodd">
        <g id="服务商-" transform="translate(-34.000000, -461.000000)">
            <g id="分组-4" transform="translate(34.000000, 461.000000)">
                <rect id="矩形" fill-opacity="0.01" fill="#FFFFFF" fill-rule="nonzero" x="0" y="0" width="25" height="25"></rect>
                <g id="dizhi-copy" transform="translate(3.000000, 1.000000)" fill="#94969E">
                    <path d="M9.8593583,22.4364754 L9.50018314,22.238929 C9.40440309,22.1850527 7.11166828,20.9069878 4.79498846,18.7728887 C3.42114345,17.5067962 2.32266607,16.1988 1.53547383,14.8848175 C0.523797117,13.1996873 0.0179587583,11.5025847 0.0299312638,9.83541329 C0.0478900221,7.20744833 1.0775255,4.74111219 2.92428448,2.88836696 C4.77702971,1.02963548 7.24037272,0.00897937915 9.86534455,0.00897937915 C12.4873233,0.00897937915 14.9476732,1.0326286 16.8004184,2.89136008 C18.6411911,4.74111219 19.6708266,7.20744833 19.7007578,9.83541329 C19.7187166,11.5205434 19.2158714,13.2326117 18.2071878,14.920735 C17.4199955,16.2377106 16.3215182,17.5457069 14.94468,18.8088062 C12.622014,20.9339259 10.3232929,22.191039 10.2275128,22.2449153 L9.8593583,22.4364754 Z M9.86235143,1.50554257 C5.2978337,1.50554257 1.55941885,5.24695055 1.52649445,9.8473858 C1.48758381,15.2948758 8.22211817,19.7187166 9.86534455,20.7184208 C10.586688,20.2874106 12.2807975,19.2128782 13.9479689,17.6833907 C15.9054736,15.8845217 18.2311328,13.0679898 18.1982084,9.85037892 C18.1503184,5.24695055 14.4089104,1.50554257 9.86235143,1.50554257 Z" id="形状" fill-rule="nonzero"></path>
                    <path d="M10.0479253,14.8189687 L7.21343458,11.984478 C6.45617361,11.2272171 6.04012904,10.2215266 6.04012904,9.14998735 C6.04012904,8.0784481 6.45617361,7.07275764 7.21343458,6.31549667 C8.77584655,4.75308469 11.320004,4.75308469 12.8824159,6.31549667 C14.4448279,7.87790864 14.4448279,10.4220661 12.8824159,11.984478 L10.0479253,14.8189687 Z M10.0479253,6.63875432 C9.40440309,6.63875432 8.76088092,6.88419068 8.27300132,7.37207028 C7.29424899,8.35082261 7.29424899,9.94615897 8.27300132,10.9249113 L10.0479253,12.6998352 L11.8228492,10.9249113 C12.8016015,9.94615897 12.8016015,8.35082261 11.8228492,7.37207028 C11.3319765,6.88419068 10.6914474,6.63875432 10.0479253,6.63875432 Z" id="形状" fill-rule="nonzero"></path>
                    <polygon id="路径" points="9.51772286 14.2886765 10.5759427 13.2304567 15.0162457 17.6707597 13.9580258 18.7289795"></polygon>
                </g>
            </g>
        </g>
    </g>
</svg>