<?xml version="1.0" encoding="UTF-8"?>
<svg width="25px" height="25px" viewBox="0 0 25 25" version="1.1" xmlns="http://www.w3.org/2000/svg" xmlns:xlink="http://www.w3.org/1999/xlink">
    <!-- Generator: Sketch 52.2 (67145) - http://www.bohemiancoding.com/sketch -->
    <title>分组 3</title>
    <desc>Created with Sketch.</desc>
    <g id="1.0.2" stroke="none" stroke-width="1" fill="none" fill-rule="evenodd">
        <g id="服务商-" transform="translate(-34.000000, -416.000000)" fill-rule="nonzero">
            <g id="分组-3" transform="translate(34.000000, 416.000000)">
                <rect id="矩形" fill-opacity="0.01" fill="#FFFFFF" x="0" y="0" width="25" height="25"></rect>
                <g id="phone-copy" transform="translate(4.000000, 0.000000)" fill="#94969E">
                    <path d="M13.9439526,23.6874029 L2.94664848,23.6874029 C1.32701458,23.6874029 0.013947924,22.3633789 0.013947924,20.7294382 L0.013947924,2.98131493 C0.013947924,1.3473264 1.32699066,0.0233502125 2.94664848,0.0233502125 L13.9439526,0.0233502125 C15.5635865,0.0233502125 16.8766771,1.34737425 16.8766771,2.98131493 L16.8766771,20.7294382 C16.8766771,22.3634267 15.5636104,23.6874029 13.9439526,23.6874029 Z M15.4100397,2.98131493 C15.4100397,2.164847 14.7535781,1.50230865 13.9439287,1.50230865 L2.94662456,1.50230865 C2.136999,1.50230865 1.4802982,2.164847 1.4802982,2.98131493 L1.4802982,3.72086593 L15.4100397,3.72086593 L15.4100158,2.98131493 L15.4100397,2.98131493 Z M15.4100397,5.19989614 L1.48032213,5.19989614 L1.48032213,17.0089072 L15.4100397,17.0089072 L15.4100397,5.19989614 Z M15.4100636,18.4879135 L1.48032213,18.4879135 L1.48032213,20.7294621 C1.48032213,21.5464564 2.13704685,22.2084684 2.94664848,22.2084684 L13.9439526,22.2084684 C14.7536021,22.2084684 15.4100636,21.5464803 15.4100636,20.7294621 L15.4100636,18.4879135 Z M8.4454082,21.4689653 C7.83825482,21.4689653 7.34589071,20.9724144 7.34589071,20.3596627 C7.34589071,19.746911 7.8382309,19.2503601 8.4454082,19.2503601 C9.05246587,19.2503601 9.54471036,19.746911 9.54471036,20.3596627 C9.54471036,20.9724144 9.05241802,21.4689653 8.4454082,21.4689653 Z" id="形状"></path>
                </g>
            </g>
        </g>
    </g>
</svg>